<svg xmlns="http://www.w3.org/2000/svg" xmlns:xlink="http://www.w3.org/1999/xlink" width="64" height="64" viewBox="0 0 64 64" fill="none">
<rect  x="0" y="0" width="64" height="64" rx="10"    fill="#FFFFFF" >
</rect>
<path fill-rule="evenodd"  fill="rgba(129, 140, 248, 1)"  d="M54 0L10 0C4.47715 0 0 4.47715 0 10L0 54C0 59.5228 4.47715 64 10 64L54 64C59.5228 64 64 59.5228 64 54L64 10C64 4.47715 59.5228 0 54 0ZM1 10C1 5.02944 5.02944 1 10 1L54 1C58.9706 1 63 5.02944 63 10L63 54C63 58.9706 58.9706 63 54 63L10 63C5.02944 63 1 58.9706 1 54L1 10Z">
</path>
<path d="M24.3094 46.575C24.1847 46.5614 24.065 46.5096 23.971 46.4204C23.7525 46.2123 23.7568 45.8779 23.9809 45.6741L47.6546 24.128L46.3807 19.9826L43.435 17.1801L39.0094 15.9028L15.3358 37.4488C15.1109 37.6533 14.7518 37.6479 14.5337 37.4413C14.3152 37.2334 14.3197 36.8989 14.5437 36.695L38.7023 14.7078L44.0468 16.2505L47.3925 19.4345L48.9315 24.4407L24.7729 46.4278C24.6449 46.5439 24.4736 46.593 24.3094 46.575Z"   fill="#2563EB" >
</path>
<path d="M48.2256 24.8084C48.1009 24.7947 47.9813 24.7428 47.8872 24.6537C47.6686 24.4457 47.673 24.1113 47.8971 23.9073L51.7774 20.3745L50.5036 16.2291L47.5584 13.4274L43.1329 12.1493L39.2518 15.6822C39.0272 15.8859 38.6686 15.8813 38.4499 15.6746C38.2314 15.4666 38.2358 15.1322 38.4597 14.9284L42.826 10.9546L48.1704 12.4979L51.5153 15.6811L53.0546 20.6873L48.6891 24.6612C48.5612 24.7773 48.3897 24.8263 48.2256 24.8084Z"   fill="#2563EB" >
</path>
<path d="M18.0179 40.5892C17.8932 40.5755 17.7736 40.5237 17.6795 40.4344C17.461 40.2264 17.4654 39.892 17.6894 39.6882L41.6057 17.9208C41.8304 17.7165 42.1897 17.7212 42.4076 17.9284C42.6261 18.1363 42.6217 18.4708 42.3975 18.6747L18.4815 40.442C18.3535 40.5581 18.1821 40.6071 18.0179 40.5892Z"   fill="#2563EB" >
</path>
<path d="M21.1637 43.5817C21.0391 43.5681 20.9195 43.5163 20.8253 43.4271C20.6068 43.219 20.6113 42.8847 20.8352 42.6807L44.7514 20.9141C44.9768 20.7105 45.3353 20.7151 45.5533 20.9216C45.7718 21.1296 45.7675 21.4641 45.5435 21.668L21.6273 43.4346C21.4993 43.5507 21.328 43.5997 21.1637 43.5817Z"   fill="#2563EB" >
</path>
<path d="M12.1 48.4414L13.7032 37.6147C13.7463 37.3275 14.0049 37.1031 14.3429 37.1629C14.653 37.2023 14.8694 37.4677 14.8269 37.757L13.4224 47.2366L23.6382 46.141C23.951 46.1082 24.2307 46.3145 24.2655 46.6041C24.3011 46.8938 24.0769 47.1558 23.7656 47.1889L12.1 48.4414Z"   fill="#2563EB" >
</path>
<path d="M16.3402 47.972C16.2156 47.9584 16.0959 47.9065 16.0018 47.8172L12.8568 44.8241C12.6382 44.6163 12.6427 44.2817 12.8667 44.0778C13.0916 43.8734 13.4507 43.8788 13.6686 44.0854L16.8138 47.0784C17.0323 47.2865 17.0278 47.621 16.8037 47.8248C16.6758 47.9409 16.5044 47.99 16.3402 47.972Z"   fill="#2563EB" >
</path>
<path d="M53.5688 54L12.7062 54C12.3715 54 12.1 53.4734 12.1 52.8249C12.1 52.1762 12.3715 51.65 12.7062 51.65L53.5689 51.65C53.9034 51.65 54.175 52.1762 54.175 52.8249C54.1749 53.4734 53.9034 54 53.5688 54Z"   fill="#2563EB" >
</path>
</svg>
